<svg width="16" height="16" viewBox="0 0 16 16" fill="none" xmlns="http://www.w3.org/2000/svg">
<path fill-rule="evenodd" clip-rule="evenodd" d="M12.6666 4.00008H3.33325C2.96506 4.00008 2.66659 4.29856 2.66659 4.66675V12.6667C2.66659 13.0349 2.96506 13.3334 3.33325 13.3334H12.6666C13.0348 13.3334 13.3333 13.0349 13.3333 12.6667V4.66675C13.3333 4.29856 13.0348 4.00008 12.6666 4.00008ZM3.33325 2.66675C2.22868 2.66675 1.33325 3.56218 1.33325 4.66675V12.6667C1.33325 13.7713 2.22868 14.6667 3.33325 14.6667H12.6666C13.7712 14.6667 14.6666 13.7713 14.6666 12.6667V4.66675C14.6666 3.56218 13.7712 2.66675 12.6666 2.66675H3.33325Z" fill="#91919C"/>
<path fill-rule="evenodd" clip-rule="evenodd" d="M6.66667 8C6.29848 8 6 8.29848 6 8.66667C6 9.03486 6.29848 9.33333 6.66667 9.33333H11.3333C11.7015 9.33333 12 9.03486 12 8.66667C12 8.29848 11.7015 8 11.3333 8H6.66667ZM4.66667 10.6667C4.29848 10.6667 4 10.9651 4 11.3333C4 11.7015 4.29848 12 4.66667 12H8.66667C9.03486 12 9.33333 11.7015 9.33333 11.3333C9.33333 10.9651 9.03486 10.6667 8.66667 10.6667H4.66667Z" fill="#91919C"/>
<path fill-rule="evenodd" clip-rule="evenodd" d="M4.66667 1.33325C4.29848 1.33325 4 1.63173 4 1.99992V4.66659C4 5.03478 4.29848 5.33325 4.66667 5.33325C5.03486 5.33325 5.33333 5.03478 5.33333 4.66659V1.99992C5.33333 1.63173 5.03486 1.33325 4.66667 1.33325ZM11.3333 1.33325C10.9651 1.33325 10.6667 1.63173 10.6667 1.99992V4.66659C10.6667 5.03478 10.9651 5.33325 11.3333 5.33325C11.7015 5.33325 12 5.03478 12 4.66659V1.99992C12 1.63173 11.7015 1.33325 11.3333 1.33325Z" fill="#91919C"/>
</svg>
