<svg width="16" height="16" viewBox="0 0 16 16" fill="none" xmlns="http://www.w3.org/2000/svg">
<path fill-rule="evenodd" clip-rule="evenodd" d="M5.33333 6.66667C5.88533 6.66667 6.33333 6.21867 6.33333 5.66667C6.33333 5.11467 5.88533 4.66667 5.33333 4.66667C4.78133 4.66667 4.33333 5.11467 4.33333 5.66667C4.33333 6.21867 4.78133 6.66667 5.33333 6.66667ZM12 12.6667H4.374L9.044 8.77C9.208 8.63067 9.50533 8.63133 9.666 8.76933L12.6667 11.3293V12C12.6667 12.368 12.368 12.6667 12 12.6667ZM4 3.33333H12C12.368 3.33333 12.6667 3.632 12.6667 4V9.576L10.5313 7.75467C9.87133 7.19333 8.83867 7.19333 8.18467 7.75067L3.33333 11.7987V4C3.33333 3.632 3.632 3.33333 4 3.33333ZM12 2H4C2.89733 2 2 2.89733 2 4V12C2 13.1027 2.89733 14 4 14H12C13.1027 14 14 13.1027 14 12V4C14 2.89733 13.1027 2 12 2Z" fill="#777E91"/>
</svg>
