<svg width="16" height="16" viewBox="0 0 16 16" fill="none" xmlns="http://www.w3.org/2000/svg">
<path fill-rule="evenodd" clip-rule="evenodd" d="M9.55283 13.3338C9.50816 13.3338 9.46216 13.3318 9.41616 13.3271C8.8295 13.2691 8.3695 12.8551 8.24283 12.2718L6.45416 4.01045L4.61216 8.26511C4.50616 8.50911 4.2655 8.66711 4.00016 8.66711H2.00016C1.6315 8.66711 1.3335 8.36845 1.3335 8.00045C1.3335 7.63178 1.6315 7.33378 2.00016 7.33378H3.56283L5.2335 3.47445C5.47016 2.93045 5.9915 2.61378 6.58416 2.67311C7.17083 2.73111 7.63083 3.14511 7.7575 3.72845L9.54616 11.9898L11.3882 7.73511C11.4942 7.49111 11.7342 7.33378 12.0002 7.33378H14.0002C14.3688 7.33378 14.6668 7.63178 14.6668 8.00045C14.6668 8.36845 14.3688 8.66711 14.0002 8.66711H12.4375L10.7668 12.5258C10.5488 13.0278 10.0815 13.3338 9.55283 13.3338Z" fill="#777E91"/>
</svg>
