<svg width="16" height="16" viewBox="0 0 16 16" fill="none" xmlns="http://www.w3.org/2000/svg">
<path fill-rule="evenodd" clip-rule="evenodd" d="M13.8808 9.37165C13.5322 9.24765 13.1522 9.42965 13.0302 9.77765C12.2782 11.9043 10.2562 13.333 8.00016 13.333C5.0595 13.333 2.66683 10.941 2.66683 7.99965C2.66683 5.74365 4.0955 3.72165 6.22216 2.96965C6.5695 2.84765 6.7515 2.46699 6.62883 2.11965C6.50616 1.77299 6.1255 1.59032 5.77816 1.71365C3.1195 2.65299 1.3335 5.17899 1.3335 7.99965C1.3335 11.6757 4.32416 14.6663 8.00016 14.6663C10.8208 14.6663 13.3468 12.881 14.2868 10.2217C14.4095 9.87499 14.2282 9.49432 13.8808 9.37165ZM9.3333 6.66658V2.71392C11.374 3.00725 12.9926 4.62525 13.286 6.66658H9.3333ZM8.66663 1.33325C8.29863 1.33325 7.99996 1.63125 7.99996 1.99992V7.33325C7.99996 7.70192 8.29863 7.99992 8.66663 7.99992H14C14.368 7.99992 14.6666 7.70192 14.6666 7.33325C14.6666 4.02459 11.9746 1.33325 8.66663 1.33325Z" fill="#777E91"/>
</svg>
