<svg width="16" height="16" viewBox="0 0 16 16" fill="none" xmlns="http://www.w3.org/2000/svg">
<path d="M13 7.99992C13 7.84659 12.9934 7.69992 12.98 7.54659L14.22 6.60659C14.4867 6.40659 14.56 6.03325 14.3934 5.73992L13.1467 3.58659C12.98 3.29325 12.62 3.17325 12.3134 3.30659L10.88 3.91325C10.6334 3.73992 10.3734 3.58659 10.1 3.45992L9.90669 1.91992C9.86669 1.58659 9.58002 1.33325 9.24669 1.33325H6.76002C6.42002 1.33325 6.13335 1.58659 6.09335 1.91992L5.90002 3.45992C5.62669 3.58659 5.36669 3.73992 5.12002 3.91325L3.68669 3.30659C3.38002 3.17325 3.02002 3.29325 2.85335 3.58659L1.60669 5.74659C1.44002 6.03992 1.51335 6.40659 1.78002 6.61325L3.02002 7.55325C3.00669 7.69992 3.00002 7.84659 3.00002 7.99992C3.00002 8.15325 3.00669 8.29992 3.02002 8.45325L1.78002 9.39325C1.51335 9.59325 1.44002 9.96659 1.60669 10.2599L2.85335 12.4133C3.02002 12.7066 3.38002 12.8266 3.68669 12.6933L5.12002 12.0866C5.36669 12.2599 5.62669 12.4133 5.90002 12.5399L6.09335 14.0799C6.13335 14.4133 6.42002 14.6666 6.75335 14.6666H9.24002C9.57335 14.6666 9.86002 14.4133 9.90002 14.0799L10.0934 12.5399C10.3667 12.4133 10.6267 12.2599 10.8734 12.0866L12.3067 12.6933C12.6134 12.8266 12.9734 12.7066 13.14 12.4133L14.3867 10.2599C14.5534 9.96659 14.48 9.59992 14.2134 9.39325L12.9734 8.45325C12.9934 8.29992 13 8.15325 13 7.99992ZM8.02669 10.3333C6.74002 10.3333 5.69335 9.28659 5.69335 7.99992C5.69335 6.71325 6.74002 5.66659 8.02669 5.66659C9.31335 5.66659 10.36 6.71325 10.36 7.99992C10.36 9.28659 9.31335 10.3333 8.02669 10.3333Z" fill="#91919C"/>
</svg>
