<svg width="16" height="16" viewBox="0 0 16 16" fill="none" xmlns="http://www.w3.org/2000/svg">
<path fill-rule="evenodd" clip-rule="evenodd" d="M7.99992 2C9.72059 2 11.2366 3.10733 11.7833 4.69667C13.4093 4.91733 14.6666 6.31467 14.6666 8C14.6666 8.814 14.3706 9.59733 13.8333 10.206C13.7013 10.3547 13.5179 10.4313 13.3333 10.4313C13.1766 10.4313 13.0193 10.3767 12.8919 10.2647C12.6166 10.02 12.5899 9.59933 12.8339 9.32267C13.1559 8.95867 13.3333 8.488 13.3333 8C13.3333 6.89733 12.4359 6 11.3333 6H11.2666C10.9493 6 10.6759 5.776 10.6133 5.46467C10.3639 4.23 9.26525 3.33333 7.99992 3.33333C6.73525 3.33333 5.63592 4.23 5.38725 5.46467C5.32459 5.776 5.05059 6 4.73325 6H4.66659C3.56392 6 2.66659 6.89733 2.66659 8C2.66659 8.488 2.84392 8.95867 3.16659 9.32267C3.40992 9.59933 3.38392 10.02 3.10792 10.2647C2.83125 10.5087 2.41059 10.4813 2.16725 10.206C1.62925 9.59733 1.33325 8.814 1.33325 8C1.33325 6.31467 2.59059 4.91733 4.21659 4.69667C4.76392 3.10733 6.27992 2 7.99992 2ZM8.66685 11.7626L9.53685 10.9226C9.80219 10.6673 10.2242 10.6746 10.4795 10.9393C10.7355 11.2046 10.7282 11.6266 10.4635 11.8819L8.46352 13.8133C8.33352 13.9373 8.16685 13.9999 8.00019 13.9999C7.82952 13.9999 7.65885 13.9353 7.52885 13.8046L5.52885 11.8046C5.26819 11.5446 5.26819 11.1226 5.52885 10.8619C5.78885 10.6019 6.21085 10.6019 6.47152 10.8619L7.33352 11.7239V7.99993C7.33352 7.63127 7.63219 7.33327 8.00019 7.33327C8.36819 7.33327 8.66685 7.63127 8.66685 7.99993V11.7626Z" fill="#777E91"/>
</svg>
