<svg width="20" height="21" viewBox="0 0 20 21" fill="none" xmlns="http://www.w3.org/2000/svg">
<path fill-rule="evenodd" clip-rule="evenodd" d="M1.66683 3.03955C2.12707 3.03955 2.50016 3.41265 2.50016 3.87288V15.5396C2.50016 15.9998 2.87326 16.3729 3.3335 16.3729H18.3335C18.7937 16.3729 19.1668 16.746 19.1668 17.2062C19.1668 17.6665 18.7937 18.0396 18.3335 18.0396H3.3335C1.95278 18.0396 0.833496 16.9203 0.833496 15.5396V3.87288C0.833496 3.41265 1.20659 3.03955 1.66683 3.03955Z" fill="white"/>
<path fill-rule="evenodd" clip-rule="evenodd" d="M17.0805 4.81599C17.4801 5.04434 17.6189 5.55338 17.3906 5.95298L14.7351 10.6C14.1439 11.6347 12.9045 12.1082 11.7739 11.7314L9.17267 10.8643C8.84146 10.7539 8.47653 10.8616 8.25843 11.1343L5.65108 14.3934C5.36357 14.7528 4.83916 14.8111 4.47978 14.5236C4.12039 14.2361 4.06212 13.7117 4.34963 13.3523L6.95698 10.0931C7.61129 9.27522 8.70607 8.95191 9.69972 9.28313L12.301 10.1502C12.6778 10.2758 13.091 10.118 13.288 9.7731L15.9435 5.12608C16.1718 4.72648 16.6809 4.58765 17.0805 4.81599Z" fill="white"/>
</svg>
